<?xml version="1.0" encoding="UTF-8"?>
<svg width="24px" height="24px" viewBox="0 0 24 24" version="1.1" xmlns="http://www.w3.org/2000/svg" xmlns:xlink="http://www.w3.org/1999/xlink">
    <title>Chat Icon</title>
    <g stroke="none" stroke-width="1" fill="none" fill-rule="evenodd">
        <path d="M20,2 L4,2 C2.9,2 2,2.9 2,4 L2,22 L6,18 L20,18 C21.1,18 22,17.1 22,16 L22,4 C22,2.9 21.1,2 20,2 Z M20,16 L6,16 L4,18 L4,4 L20,4 L20,16 Z" fill="#FFFFFF" fill-rule="nonzero"></path>
        <path d="M7,9 L17,9 C17.55,9 18,8.55 18,8 C18,7.45 17.55,7 17,7 L7,7 C6.45,7 6,7.45 6,8 C6,8.55 6.45,9 7,9 Z M7,12 L14,12 C14.55,12 15,11.55 15,11 C15,10.45 14.55,10 14,10 L7,10 C6.45,10 6,10.45 6,11 C6,11.55 6.45,12 7,12 Z" fill="#FFFFFF" fill-rule="nonzero"></path>
    </g>
</svg>
